<svg width="39" height="36" viewBox="0 0 39 36" fill="none" xmlns="http://www.w3.org/2000/svg">
<path d="M33.5156 3.9375H5.48438C4.81025 3.9375 4.26562 4.44023 4.26562 5.0625V30.9375C4.26562 31.5598 4.81025 32.0625 5.48438 32.0625H33.5156C34.1897 32.0625 34.7344 31.5598 34.7344 30.9375V5.0625C34.7344 4.44023 34.1897 3.9375 33.5156 3.9375ZM13.3034 27.9035H8.78262V14.4809H13.3034V27.9035ZM11.0449 12.6457C10.5267 12.6457 10.0201 12.5038 9.58915 12.2381C9.15825 11.9723 8.82239 11.5945 8.62407 11.1526C8.42574 10.7106 8.37385 10.2243 8.47496 9.75508C8.57606 9.28589 8.82562 8.85491 9.19208 8.51664C9.55854 8.17837 10.0254 7.94801 10.5337 7.85468C11.042 7.76135 11.5689 7.80925 12.0477 7.99232C12.5265 8.17539 12.9357 8.48541 13.2236 8.88317C13.5116 9.28093 13.6652 9.74857 13.6652 10.227C13.6614 11.5629 12.4884 12.6457 11.0449 12.6457ZM30.2288 27.9035H25.7118V21.375C25.7118 19.8176 25.6813 17.8172 23.3619 17.8172C21.012 17.8172 20.6502 19.5117 20.6502 21.2625V27.9035H16.137V14.4809H20.4712V16.316H20.5321C21.1339 15.2613 22.6078 14.1469 24.8092 14.1469C29.3871 14.1469 30.2288 16.9277 30.2288 20.5418V27.9035Z" fill="#E8E8E8"/>
</svg>
