<svg width="35" height="35" viewBox="0 0 35 35" fill="none" xmlns="http://www.w3.org/2000/svg">
<path d="M28.4375 10.2083C27.2361 8.41019 25.6089 6.93678 23.7008 5.91909C21.7926 4.90141 19.6626 4.37099 17.5 4.375C15.3412 4.37368 13.2154 4.90543 11.3114 5.92305C9.40747 6.94067 7.78423 8.41266 6.58583 10.2083" stroke="#E8E8E8" stroke-linecap="round" stroke-linejoin="round"/>
<path d="M16.7708 4.375C15.6343 6.19588 14.7391 8.15674 14.1079 10.2083" stroke="#E8E8E8" stroke-linecap="round" stroke-linejoin="round"/>
<path d="M18.2292 4.375C19.3668 6.19573 20.2629 8.1566 20.895 10.2083" stroke="#E8E8E8" stroke-linecap="round" stroke-linejoin="round"/>
<path d="M28.4375 24.7917C27.2361 26.5898 25.6089 28.0632 23.7008 29.0809C21.7926 30.0986 19.6626 30.629 17.5 30.625C15.3412 30.6263 13.2154 30.0946 11.3114 29.0769C9.40747 28.0593 7.78423 26.5873 6.58583 24.7917" stroke="#E8E8E8" stroke-linecap="round" stroke-linejoin="round"/>
<path d="M16.7708 30.625C15.6343 28.8041 14.7391 26.8433 14.1079 24.7917" stroke="#E8E8E8" stroke-linecap="round" stroke-linejoin="round"/>
<path d="M18.2292 30.625C19.3668 28.8043 20.2629 26.8434 20.895 24.7917" stroke="#E8E8E8" stroke-linecap="round" stroke-linejoin="round"/>
<path d="M2.91667 14.5833L4.37501 20.4167L6.5625 14.5833L8.75 20.4167L10.2083 14.5833" stroke="#E8E8E8" stroke-linecap="round" stroke-linejoin="round"/>
<path d="M24.7917 14.5833L26.25 20.4167L28.4375 14.5833L30.625 20.4167L32.0833 14.5833" stroke="#E8E8E8" stroke-linecap="round" stroke-linejoin="round"/>
<path d="M13.8542 14.5833L15.3125 20.4167L17.5 14.5833L19.6875 20.4167L21.1458 14.5833" stroke="#E8E8E8" stroke-linecap="round" stroke-linejoin="round"/>
</svg>
